<svg id="Capa_1" data-name="Capa 1" xmlns="http://www.w3.org/2000/svg" viewBox="0 0 32 32"><defs><style>.cls-1{fill:none;stroke:#fff;stroke-miterlimit:10;}</style></defs><title>contacto</title><path class="cls-1" d="M25,9.48l-9,8.23a.08.08,0,0,1-.14,0L7,9.48s0-.14,0-.14H25C25,9.39,25.08,9.48,25,9.48Z"/><path class="cls-1" d="M25.41,22.66H6.59a.11.11,0,0,1-.09-.1V9.48c0-.09.09-.14.14,0l9.15,8.45A.35.35,0,0,0,16,18a.22.22,0,0,0,.18-.1l9.2-8.45a.09.09,0,0,1,.14,0V22.61C25.5,22.67,25.45,22.66,25.41,22.66Z"/></svg>