<svg xmlns="http://www.w3.org/2000/svg" viewBox="0 0 24 24" xml:space="preserve"><path fill="#303C42" d="M22 3h-1.5a.5.5 0 1 0 0 1H22c.552 0 1 .449 1 1v1.5a.5.5 0 1 0 1 0V5c0-1.103-.897-2-2-2zM.5 7a.5.5 0 0 0 .5-.5V5c0-.551.448-1 1-1h1.5a.5.5 0 1 0 0-1H2C.897 3 0 3.897 0 5v1.5a.5.5 0 0 0 .5.5zM23.5 17a.5.5 0 0 0-.5.5V19c0 .551-.448 1-1 1h-1.5a.5.5 0 1 0 0 1H22c1.103 0 2-.897 2-2v-1.5a.5.5 0 0 0-.5-.5zM3.5 20H2c-.552 0-1-.449-1-1v-1.5a.5.5 0 1 0-1 0V19c0 1.103.897 2 2 2h1.5a.5.5 0 1 0 0-1zM3.5 6a.5.5 0 0 0-.5.5v11a.5.5 0 1 0 1 0v-11a.5.5 0 0 0-.5-.5zM13.5 6a.5.5 0 0 0-.5.5v11a.5.5 0 1 0 1 0v-11a.5.5 0 0 0-.5-.5zM20.5 6a.5.5 0 0 0-.5.5v11a.5.5 0 1 0 1 0v-11a.5.5 0 0 0-.5-.5zM6.5 6a.5.5 0 0 0-.5.5v8a.5.5 0 1 0 1 0v-8a.5.5 0 0 0-.5-.5zM8.5 6a.5.5 0 0 0-.5.5v8a.5.5 0 1 0 1 0v-8a.5.5 0 0 0-.5-.5zM10.5 6a.5.5 0 0 0-.5.5v8a.5.5 0 1 0 1 0v-8a.5.5 0 0 0-.5-.5zM15.5 6a.5.5 0 0 0-.5.5v8a.5.5 0 1 0 1 0v-8a.5.5 0 0 0-.5-.5zM18.5 6a.5.5 0 0 0-.5.5v8a.5.5 0 1 0 1 0v-8a.5.5 0 0 0-.5-.5zM18.5 16a.5.5 0 0 0-.5.5v1a.5.5 0 1 0 1 0v-1a.5.5 0 0 0-.5-.5zM15.5 16a.5.5 0 0 0-.5.5v1a.5.5 0 1 0 1 0v-1a.5.5 0 0 0-.5-.5zM10.5 16a.5.5 0 0 0-.5.5v1a.5.5 0 1 0 1 0v-1a.5.5 0 0 0-.5-.5zM8.5 16a.5.5 0 0 0-.5.5v1a.5.5 0 1 0 1 0v-1a.5.5 0 0 0-.5-.5zM6.5 16a.5.5 0 0 0-.5.5v1a.5.5 0 1 0 1 0v-1a.5.5 0 0 0-.5-.5z"/><path fill="#D32E2E" d="M23.5 11H.5a.5.5 0 1 0 0 1h23a.5.5 0 1 0 0-1z"/><linearGradient id="a" gradientUnits="userSpaceOnUse" x1="-.708" y1="6.074" x2="24.708" y2="17.926"><stop offset="0" style="stop-color:#fff;stop-opacity:.2"/><stop offset="1" style="stop-color:#fff;stop-opacity:0"/></linearGradient><path fill="url(#a)" d="M6.5 16a.5.5 0 0 0-.5.5v1a.5.5 0 1 0 1 0v-1a.5.5 0 0 0-.5-.5zm2 0a.5.5 0 0 0-.5.5v1a.5.5 0 1 0 1 0v-1a.5.5 0 0 0-.5-.5zm2 0a.5.5 0 0 0-.5.5v1a.5.5 0 1 0 1 0v-1a.5.5 0 0 0-.5-.5zm-7 4H2c-.552 0-1-.449-1-1v-1.5a.5.5 0 1 0-1 0V19c0 1.103.897 2 2 2h1.5a.5.5 0 1 0 0-1zM.5 7a.5.5 0 0 0 .5-.5V5c0-.551.448-1 1-1h1.5a.5.5 0 1 0 0-1H2C.897 3 0 3.897 0 5v1.5a.5.5 0 0 0 .5.5zm23 4H21V6.5a.5.5 0 1 0-1 0V11h-1V6.5a.5.5 0 1 0-1 0V11h-2V6.5a.5.5 0 1 0-1 0V11h-1V6.5a.5.5 0 1 0-1 0V11h-2V6.5a.5.5 0 1 0-1 0V11H9V6.5a.5.5 0 1 0-1 0V11H7V6.5a.5.5 0 1 0-1 0V11H4V6.5a.5.5 0 1 0-1 0V11H.5a.5.5 0 1 0 0 1H3v5.5a.5.5 0 1 0 1 0V12h2v2.5a.5.5 0 1 0 1 0V12h1v2.5a.5.5 0 1 0 1 0V12h1v2.5a.5.5 0 1 0 1 0V12h2v5.5a.5.5 0 1 0 1 0V12h1v2.5a.5.5 0 1 0 1 0V12h2v2.5a.5.5 0 1 0 1 0V12h1v5.5a.5.5 0 1 0 1 0V12h2.5a.5.5 0 1 0 0-1zM22 3h-1.5a.5.5 0 1 0 0 1H22c.552 0 1 .449 1 1v1.5a.5.5 0 1 0 1 0V5c0-1.103-.897-2-2-2zm-6.5 13a.5.5 0 0 0-.5.5v1a.5.5 0 1 0 1 0v-1a.5.5 0 0 0-.5-.5zm8 1a.5.5 0 0 0-.5.5V19c0 .551-.448 1-1 1h-1.5a.5.5 0 1 0 0 1H22c1.103 0 2-.897 2-2v-1.5a.5.5 0 0 0-.5-.5zm-5-1a.5.5 0 0 0-.5.5v1a.5.5 0 1 0 1 0v-1a.5.5 0 0 0-.5-.5z"/></svg>