<svg id="Capa_1" data-name="Capa 1" xmlns="http://www.w3.org/2000/svg" viewBox="0 0 32 32"><defs><style>.cls-1{fill:#fef1ec;stroke:#fff;stroke-miterlimit:10;stroke-width:0.5px;}</style></defs><title>home</title><path class="cls-1" d="M26,16.62c-.08,0-.16,0-.16-.08L16,6.69,6.11,16.54a.36.36,0,0,1-.4,0,.39.39,0,0,1,0-.39L15.8,6.06a.36.36,0,0,1,.4,0L26.29,16.15a.39.39,0,0,1,0,.39A.6.6,0,0,1,26,16.62Z"/><path class="cls-1" d="M23.29,26H18.4a.25.25,0,0,1-.23-.24V18.83h-4.5v6.93a.25.25,0,0,1-.23.24H8.55a.25.25,0,0,1-.23-.24V13.94a.25.25,0,0,1,.23-.24.26.26,0,0,1,.24.24V25.45h4.33V18.51a.25.25,0,0,1,.24-.23h5a.25.25,0,0,1,.23.23v6.94H22.9V13.94a.25.25,0,0,1,.23-.24.26.26,0,0,1,.24.24V25.76C23.61,25.84,23.45,26,23.29,26Z"/></svg>