<svg id="Capa_1" data-name="Capa 1" xmlns="http://www.w3.org/2000/svg" viewBox="0 0 32 32"><defs><style>.cls-1{fill:#fff;stroke:#fff;stroke-miterlimit:10;stroke-width:0.5px;}</style></defs><title>home</title><path class="cls-1" d="M15.89,16.76a5.46,5.46,0,1,1,5.45-5.46A5.45,5.45,0,0,1,15.89,16.76Zm0-10.3a4.85,4.85,0,1,0,4.84,4.84A4.84,4.84,0,0,0,15.89,6.46Z"/><path class="cls-1" d="M22.71,26.15H9.32A.32.32,0,0,1,9,25.83V23.11a7,7,0,1,1,14,0v2.75C23,26,22.89,26.15,22.71,26.15ZM9.65,25.54H22.42v-2.4a6.39,6.39,0,0,0-12.77,0v2.4Z"/></svg>