<svg id="Capa_1" data-name="Capa 1" xmlns="http://www.w3.org/2000/svg" viewBox="0 0 60 60.01"><defs><style>.cls-1{fill:#fff;stroke:#fff;stroke-miterlimit:10;stroke-width:0.5px;}</style></defs><title>Logo</title><path class="cls-1" d="M32.89,30.19a39.5,39.5,0,0,1,2.74-8.71,5.18,5.18,0,0,1,1.44-2A6,6,0,0,1,39.61,19h0a.29.29,0,0,1,.26.47Q37,23.16,35.7,30.19l-.34,1.69A24.16,24.16,0,0,0,35,36.39q0,3.95,2.43,3.94a3.53,3.53,0,0,0,1.69-.51.29.29,0,0,1,.42.33C39.13,41.51,38,42.2,36,42.2c-2.62,0-3.94-2-3.94-6a21.75,21.75,0,0,1,.47-4.32Z"/><path class="cls-1" d="M18.63,29.52a.29.29,0,0,0-.29.23L15.31,45a17.16,17.16,0,0,0-.49,3.21,3.19,3.19,0,0,0,.21,1,.31.31,0,0,1-.15.36,9.86,9.86,0,0,1-4.26,1.14c-.87,0-1.3-.35-1.3-1a24.65,24.65,0,0,1,.49-3l3.34-16.76a.28.28,0,0,0-.28-.35h-.65a15.64,15.64,0,0,0-6.8,1.67.29.29,0,0,1-.4-.37,6.55,6.55,0,0,1,2.46-3.29q1.69-1,5.5-1h.62a.28.28,0,0,0,.28-.24l2.41-12.1a.3.3,0,0,0-.33-.35,26.32,26.32,0,0,1-3.62.27q-3.6,0-4.47-4.41a.29.29,0,0,1,.44-.31,7.67,7.67,0,0,0,4.21,1.06A78.92,78.92,0,0,0,22,9.71a.29.29,0,0,1,.32.35L19.05,26.15a.3.3,0,0,0,.29.35H31.88c4.45,0-.38,0,5,0h.44a9,9,0,0,0,4.23-1.43.3.3,0,0,1,.44.31q-.78,4.14-4.64,4.14H18.63Z"/><path class="cls-1" d="M25.87,22.33a.29.29,0,0,1-.54-.07,7.54,7.54,0,0,1-.21-1.78Q25.12,16.3,30,13A19.23,19.23,0,0,1,41,9.69q6.49,0,10.22,3.76T55,23.75a22.61,22.61,0,0,1-5.8,15.34,24,24,0,0,1-7.67,5.73,20.29,20.29,0,0,1-8.81,2.23c-2.69,0-3.19-1.47-4-4-.65-1.89.56-1.35,4.74-.13a8.31,8.31,0,0,0,2.71.5,13.58,13.58,0,0,0,10.78-5.13,19,19,0,0,0,4.35-12.71q0-5.88-3.16-9.4a10.77,10.77,0,0,0-8.41-3.53,13.35,13.35,0,0,0-8,2.7A20.35,20.35,0,0,0,25.87,22.33Z"/></svg>