<svg id="Capa_1" data-name="Capa 1" xmlns="http://www.w3.org/2000/svg" viewBox="0 0 32 32"><defs><style>.cls-1{fill:#fff;stroke:#fff;stroke-miterlimit:10;stroke-width:0.5px;}</style></defs><title>proyectos</title><path class="cls-1" d="M10.45,11.12c-.29-.14-.57-.14-.71.14L6.61,16.1a.42.42,0,0,0,0,.57l3.13,4.84c.14.14.28.28.42.28s.15,0,.29-.14.28-.43.14-.71l-3-4.56,3-4.55A.63.63,0,0,0,10.45,11.12Z"/><path class="cls-1" d="M22.26,11.26c-.14-.28-.42-.28-.71-.14s-.28.42-.14.71l3,4.55-3,4.56c-.14.28-.14.57.14.71s.14.14.29.14.28-.14.42-.28l3.13-4.84a.42.42,0,0,0,0-.57Z"/><path class="cls-1" d="M19.27,7.13c-.28-.14-.57,0-.57.29L12.44,24.35c-.14.29,0,.57.29.57h.14c.14,0,.43-.14.43-.28L19.56,7.7C19.7,7.42,19.56,7.13,19.27,7.13Z"/></svg>