<svg id="Capa_1" data-name="Capa 1" xmlns="http://www.w3.org/2000/svg" viewBox="0 0 32 32"><defs><style>.cls-1{fill:#fff;}</style></defs><title>temas</title><path class="cls-1" d="M4.5,13.4a8.31,8.31,0,0,0,5.91,7.79c1.06.25,2.47-.13,2.47-1.32,0-1-.84-2-.71-3.15.07-.73.92-1.18,2-1.36,1.83-.3,4.46-1.56,4.22-5.48-.21-3.58-4.77-5.71-8.35-4.71A8,8,0,0,0,4.5,13.4Zm2.61,1.29a.93.93,0,0,1-1.7-.76.93.93,0,1,1,1.7.76ZM8,11A1.2,1.2,0,1,1,7.4,9.43,1.19,1.19,0,0,1,8,11Zm9,.35a2.16,2.16,0,1,1-1.09-2.85A2.16,2.16,0,0,1,17,11.36Zm-5.07-3a1.59,1.59,0,1,1-.8-2.09A1.59,1.59,0,0,1,11.89,8.4Z"/><path class="cls-1" d="M11.33,27.15a16.89,16.89,0,0,1-2-.08l.39-.79c6.3.31,10.4-1.1,12.45-3.62a6.12,6.12,0,0,0,1.18-5.05l.94-.23A7,7,0,0,1,23,23.29C20.86,25.89,17,27.15,11.33,27.15Z"/><path class="cls-1" d="M9.75,27.07a2.53,2.53,0,0,1-.39,0l.16-.55a.49.49,0,0,1,.31-.32,1.28,1.28,0,0,0,.39-.24c.48-.31,2.21-1.49,3.71-6.61,1.36-4.73,4.5-5,5.76-4.85a.5.5,0,0,1,.42.61h0a.49.49,0,0,1-.54.37c-1-.11-3.49.11-4.7,4.18-1.1,3.78-2.6,6.38-4.17,7.17A1.65,1.65,0,0,1,9.75,27.07Z"/><path class="cls-1" d="M24,17.69a4.35,4.35,0,0,1-3.31-1.18,3.77,3.77,0,0,1-1-2.68v-.15l.08-.16c0-.08,3.15-4.25,6-8.67l.87.56C24.09,9.34,21.25,13.2,20.7,14a2.65,2.65,0,0,0,.71,1.81,3.64,3.64,0,0,0,2.76.87l4.8-9,.87.47-5.12,9.45H24.4A.57.57,0,0,1,24,17.69Z"/></svg>